{
    "asset" : {
        "generator" : "Khronos glTF Blender I/O v1.0.5",
        "version" : "2.0"
    },
    "scene" : 0,
    "scenes" : [
        {
            "name" : "Scene",
            "nodes" : [
                0,
                1,
                3
            ]
        }
    ],
    "nodes" : [
        {
            "name" : "Light",
            "rotation" : [
                0.16907575726509094,
                0.7558803558349609,
                -0.27217137813568115,
                0.570947527885437
            ],
            "translation" : [
                -1.645687222480774,
                1.4790250062942505,
                -0.7291476726531982
            ]
        },
        {
            "name" : "Camera",
            "rotation" : [
                0.5866303443908691,
                -0.05080225318670273,
                0.036911554634571075,
                0.807416558265686
            ],
            "translation" : [
                -0.10033923387527466,
                0.1765320599079132,
                0.3952447474002838
            ]
        },
        {
            "mesh" : 0,
            "name" : "Icing"
        },
        {
            "children" : [
                2
            ],
            "mesh" : 1,
            "name" : "Donut",
            "translation" : [
                0,
                0.02358246222138405,
                0
            ]
        }
    ],
    "materials" : [
        {
            "doubleSided" : true,
            "name" : "Material.002",
            "pbrMetallicRoughness" : {
                "baseColorFactor" : [
                    0.8000000715255737,
                    0.2603774666786194,
                    0.7791283130645752,
                    1
                ],
                "metallicFactor" : 0,
                "roughnessFactor" : 0.2844036817550659
            }
        },
        {
            "doubleSided" : true,
            "name" : "Material.003",
            "pbrMetallicRoughness" : {
                "baseColorFactor" : [
                    0.5894176959991455,
                    0.2286941409111023,
                    0.24863934516906738,
                    1
                ],
                "metallicFactor" : 0,
                "roughnessFactor" : 0.536697268486023
            }
        }
    ],
    "meshes" : [
        {
            "name" : "Torus.001",
            "primitives" : [
                {
                    "attributes" : {
                        "POSITION" : 0,
                        "NORMAL" : 1,
                        "TEXCOORD_0" : 2,
                        "JOINTS_0" : 3,
                        "WEIGHTS_0" : 4
                    },
                    "indices" : 5,
                    "material" : 0
                },
                {
                    "attributes" : {
                        "POSITION" : 6,
                        "NORMAL" : 7,
                        "TEXCOORD_0" : 8,
                        "JOINTS_0" : 9,
                        "WEIGHTS_0" : 10
                    },
                    "indices" : 11,
                    "material" : 0
                },
                {
                    "attributes" : {
                        "POSITION" : 12,
                        "NORMAL" : 13,
                        "TEXCOORD_0" : 14,
                        "JOINTS_0" : 15,
                        "WEIGHTS_0" : 16
                    },
                    "indices" : 17,
                    "material" : 0
                }
            ]
        },
        {
            "name" : "Torus",
            "primitives" : [
                {
                    "attributes" : {
                        "POSITION" : 18,
                        "NORMAL" : 19,
                        "TEXCOORD_0" : 20
                    },
                    "indices" : 21,
                    "material" : 1
                }
            ]
        }
    ],
    "accessors" : [
        {
            "bufferView" : 0,
            "componentType" : 5126,
            "count" : 65535,
            "max" : [
                0.07568955421447754,
                0.030792338773608208,
                0.07360710203647614
            ],
            "min" : [
                -0.07282791286706924,
                -0.0033887505996972322,
                -0.07344119995832443
            ],
            "type" : "VEC3"
        },
        {
            "bufferView" : 1,
            "componentType" : 5126,
            "count" : 65535,
            "type" : "VEC3"
        },
        {
            "bufferView" : 2,
            "componentType" : 5126,
            "count" : 65535,
            "type" : "VEC2"
        },
        {
            "bufferView" : 3,
            "componentType" : 5123,
            "count" : 65535,
            "type" : "VEC4"
        },
        {
            "bufferView" : 4,
            "componentType" : 5126,
            "count" : 65535,
            "type" : "VEC4"
        },
        {
            "bufferView" : 5,
            "componentType" : 5123,
            "count" : 379653,
            "type" : "SCALAR"
        },
        {
            "bufferView" : 6,
            "componentType" : 5126,
            "count" : 7599,
            "max" : [
                0.07540660351514816,
                0.017194636166095734,
                0.07360710203647614
            ],
            "min" : [
                -0.07282791286706924,
                -0.0033807356376200914,
                -0.07347112894058228
            ],
            "type" : "VEC3"
        },
        {
            "bufferView" : 7,
            "componentType" : 5126,
            "count" : 7599,
            "type" : "VEC3"
        },
        {
            "bufferView" : 8,
            "componentType" : 5126,
            "count" : 7599,
            "type" : "VEC2"
        },
        {
            "bufferView" : 9,
            "componentType" : 5123,
            "count" : 7599,
            "type" : "VEC4"
        },
        {
            "bufferView" : 10,
            "componentType" : 5126,
            "count" : 7599,
            "type" : "VEC4"
        },
        {
            "bufferView" : 11,
            "componentType" : 5123,
            "count" : 36591,
            "type" : "SCALAR"
        },
        {
            "bufferView" : 12,
            "componentType" : 5126,
            "count" : 1653,
            "max" : [
                0.07082396745681763,
                0.01718422770500183,
                0.07360710203647614
            ],
            "min" : [
                -0.0718688815832138,
                -0.0033887505996972322,
                -0.07347112894058228
            ],
            "type" : "VEC3"
        },
        {
            "bufferView" : 13,
            "componentType" : 5126,
            "count" : 1653,
            "type" : "VEC3"
        },
        {
            "bufferView" : 14,
            "componentType" : 5126,
            "count" : 1653,
            "type" : "VEC2"
        },
        {
            "bufferView" : 15,
            "componentType" : 5123,
            "count" : 1653,
            "type" : "VEC4"
        },
        {
            "bufferView" : 16,
            "componentType" : 5126,
            "count" : 1653,
            "type" : "VEC4"
        },
        {
            "bufferView" : 17,
            "componentType" : 5123,
            "count" : 4620,
            "type" : "SCALAR"
        },
        {
            "bufferView" : 18,
            "componentType" : 5126,
            "count" : 5929,
            "max" : [
                0.07364274561405182,
                0.026847273111343384,
                0.07321600615978241
            ],
            "min" : [
                -0.074433334171772,
                -0.025212226435542107,
                -0.07435306161642075
            ],
            "type" : "VEC3"
        },
        {
            "bufferView" : 19,
            "componentType" : 5126,
            "count" : 5929,
            "type" : "VEC3"
        },
        {
            "bufferView" : 20,
            "componentType" : 5126,
            "count" : 5929,
            "type" : "VEC2"
        },
        {
            "bufferView" : 21,
            "componentType" : 5123,
            "count" : 34560,
            "type" : "SCALAR"
        }
    ],
    "bufferViews" : [
        {
            "buffer" : 0,
            "byteLength" : 786420,
            "byteOffset" : 0
        },
        {
            "buffer" : 0,
            "byteLength" : 786420,
            "byteOffset" : 786420
        },
        {
            "buffer" : 0,
            "byteLength" : 524280,
            "byteOffset" : 1572840
        },
        {
            "buffer" : 0,
            "byteLength" : 524280,
            "byteOffset" : 2097120
        },
        {
            "buffer" : 0,
            "byteLength" : 1048560,
            "byteOffset" : 2621400
        },
        {
            "buffer" : 0,
            "byteLength" : 759306,
            "byteOffset" : 3669960
        },
        {
            "buffer" : 0,
            "byteLength" : 91188,
            "byteOffset" : 4429268
        },
        {
            "buffer" : 0,
            "byteLength" : 91188,
            "byteOffset" : 4520456
        },
        {
            "buffer" : 0,
            "byteLength" : 60792,
            "byteOffset" : 4611644
        },
        {
            "buffer" : 0,
            "byteLength" : 60792,
            "byteOffset" : 4672436
        },
        {
            "buffer" : 0,
            "byteLength" : 121584,
            "byteOffset" : 4733228
        },
        {
            "buffer" : 0,
            "byteLength" : 73182,
            "byteOffset" : 4854812
        },
        {
            "buffer" : 0,
            "byteLength" : 19836,
            "byteOffset" : 4927996
        },
        {
            "buffer" : 0,
            "byteLength" : 19836,
            "byteOffset" : 4947832
        },
        {
            "buffer" : 0,
            "byteLength" : 13224,
            "byteOffset" : 4967668
        },
        {
            "buffer" : 0,
            "byteLength" : 13224,
            "byteOffset" : 4980892
        },
        {
            "buffer" : 0,
            "byteLength" : 26448,
            "byteOffset" : 4994116
        },
        {
            "buffer" : 0,
            "byteLength" : 9240,
            "byteOffset" : 5020564
        },
        {
            "buffer" : 0,
            "byteLength" : 71148,
            "byteOffset" : 5029804
        },
        {
            "buffer" : 0,
            "byteLength" : 71148,
            "byteOffset" : 5100952
        },
        {
            "buffer" : 0,
            "byteLength" : 47432,
            "byteOffset" : 5172100
        },
        {
            "buffer" : 0,
            "byteLength" : 69120,
            "byteOffset" : 5219532
        }
    ],
    "buffers" : [
        {
            "byteLength" : 5288652,
            "uri" : "Donut V3.glb.bin"
        }
    ]
}
