{"asset":{"generator":"3D Builder","version":"2.0"},"scene":0,"scenes":[{"nodes":[0]}],"nodes":[{"children":[1,2]},{"mesh":0,"matrix":[1,0,0,0,0,-1.1920928955078125E-7,-0.99999988079071045,0,0,0.99999988079071045,-1.1920928955078125E-7,0,1966.8192138671875,-93.353309631347656,-4297.95068359375,1]},{"mesh":1,"matrix":[1,0,0,0,0,-1.1920928955078125E-7,-0.99999988079071045,0,0,0.99999988079071045,-1.1920928955078125E-7,0,1966.8192138671875,-93.353309631347656,-4297.95068359375,1]}],"meshes":[{"primitives":[{"attributes":{"POSITION":0,"COLOR_0":1},"mode":4,"indices":2}]},{"primitives":[{"attributes":{"POSITION":3},"mode":4,"indices":4,"material":0}]}],"accessors":[{"bufferView":0,"byteOffset":0,"count":224,"componentType":5126,"type":"VEC3","min":[-2009.1346435546875,-4339.669921875,0.64498323202133179],"max":[-1924.5040283203125,-4256.2333984375,186.06062316894531]},{"bufferView":1,"byteOffset":0,"count":224,"componentType":5121,"type":"VEC4","normalized":true},{"bufferView":2,"byteOffset":0,"count":1488,"componentType":5125,"type":"SCALAR"},{"bufferView":3,"byteOffset":0,"count":3,"componentType":5126,"type":"VEC3","min":[-1977.209228515625,-4291.466796875,136.687744140625],"max":[-1977.15283203125,-4291.3955078125,136.7010498046875]},{"bufferView":4,"byteOffset":0,"count":6,"componentType":5125,"type":"SCALAR"}],"materials":[{"name":"273_person__0","pbrMetallicRoughness":{"baseColorFactor":[1,1,1,1],"metallicFactor":0,"roughnessFactor":1},"alphaMode":"OPAQUE"}],"bufferViews":[{"buffer":0,"byteOffset":0,"byteLength":2688,"byteStride":12,"target":34962},{"buffer":0,"byteOffset":2688,"byteLength":896,"byteStride":4,"target":34962},{"buffer":0,"byteOffset":3584,"byteLength":5952,"target":34963},{"buffer":0,"byteOffset":9536,"byteLength":36,"byteStride":12,"target":34962},{"buffer":0,"byteOffset":9572,"byteLength":24,"target":34963}],"buffers":[{"byteLength":9596,"uri":"LowPolyMan1.bin"}]}